<svg width="25" height="25" viewBox="0 0 25 25" fill="none" xmlns="http://www.w3.org/2000/svg">
<path d="M25 25H0V0H25V25Z" fill="#00122F"/>
<path d="M12.1618 20.3225C7.66154 20.3225 4 16.661 4 12.1607C4 11.5948 4.45684 11.138 5.02278 11.138C5.58871 11.138 6.04555 11.5948 6.04555 12.1607C6.04555 15.5325 8.79001 18.2769 12.1618 18.2769C15.5335 18.2769 18.278 15.5325 18.278 12.1607C18.278 10.0163 17.1325 7.99803 15.2846 6.90025C14.8005 6.61046 14.6403 5.98316 14.9301 5.49904C15.2199 5.01493 15.8472 4.85469 16.3313 5.14448C18.7962 6.61046 20.3235 9.30036 20.3235 12.1641C20.3235 16.6644 16.662 20.3259 12.1618 20.3259V20.3225Z" fill="white"/>
</svg>
