<svg width="40" height="40" viewBox="0 0 55 55" fill="none" xmlns="http://www.w3.org/2000/svg">
<path fill-rule="evenodd" clip-rule="evenodd" d="M12.7285 39.6056C12.1704 40.3418 12.2346 41.4035 12.9158 42.0847C13.6589 42.8278 14.8548 42.8366 15.5871 42.1044L38.892 18.7994L38.9826 35.7273L39.0046 36.0066C39.1443 36.9187 39.9331 37.625 40.8815 37.634C41.9248 37.6438 42.766 36.8061 42.7605 35.7629L42.6469 14.2971C42.6486 14.1717 42.638 14.0461 42.615 13.9221C42.451 13.0352 41.6711 12.3572 40.7398 12.3524L19.2378 12.2404L18.9588 12.2594C18.0493 12.3895 17.3578 13.1711 17.3669 14.1194C17.3768 15.1627 18.2305 16.0128 19.2737 16.0182L36.2031 16.1063L12.8961 39.4134L12.7285 39.6056Z" fill="#ffffff"/>
</svg>
