<svg width="350" height="284" viewBox="0 0 456 284" fill="none" xmlns="http://www.w3.org/2000/svg">
<path d="M3.45582 268.96V235.093H12.3811L23.2402 258.894H24.1327V235.093H30.9754V268.96H22.1493L11.1911 244.762H10.2985V268.96H3.45582ZM47.5201 269.505C44.7103 269.505 42.446 269.043 40.727 268.117C39.0411 267.191 37.818 265.77 37.0577 263.853C36.2974 261.902 35.9173 259.39 35.9173 256.316C35.9173 253.341 36.314 250.928 37.1073 249.076C37.9007 247.192 39.1568 245.804 40.8758 244.911C42.5947 243.986 44.8095 243.523 47.5201 243.523C50.2638 243.523 52.4786 243.986 54.1645 244.911C55.8835 245.804 57.1396 247.192 57.933 249.076C58.7594 250.928 59.1726 253.341 59.1726 256.316C59.1726 259.39 58.7924 261.902 58.0321 263.853C57.2718 265.77 56.0322 267.191 54.3133 268.117C52.6274 269.043 50.363 269.505 47.5201 269.505ZM47.5201 264.051C48.9085 264.051 49.9498 263.803 50.644 263.307C51.3382 262.778 51.801 261.952 52.0324 260.828C52.2968 259.671 52.429 258.167 52.429 256.316C52.429 254.498 52.2803 253.06 51.9828 252.002C51.6853 250.911 51.1894 250.134 50.4952 249.671C49.801 249.209 48.8094 248.977 47.5201 248.977C46.264 248.977 45.2723 249.209 44.545 249.671C43.8509 250.134 43.355 250.911 43.0575 252.002C42.76 253.06 42.6112 254.498 42.6112 256.316C42.6112 258.167 42.7269 259.671 42.9583 260.828C43.2228 261.952 43.7021 262.778 44.3963 263.307C45.0905 263.803 46.1318 264.051 47.5201 264.051ZM78.5487 268.96L72.7968 235.093H79.6891L83.8543 262.365H85.0443L90.2011 235.441H97.8868L103.143 262.365H104.333L108.25 235.093H115.192L109.539 268.96H98.6801L93.8704 242.085H94.1183L89.259 268.96H78.5487ZM129.097 269.505C126.354 269.505 124.172 269.043 122.552 268.117C120.965 267.191 119.825 265.786 119.131 263.902C118.437 262.018 118.09 259.654 118.09 256.812C118.09 253.737 118.519 251.225 119.379 249.275C120.271 247.324 121.56 245.886 123.246 244.961C124.932 244.002 127.015 243.523 129.494 243.523C133.163 243.523 135.924 244.448 137.775 246.3C139.659 248.151 140.601 251.076 140.601 255.076L140.304 258.745H124.734C124.767 260.597 125.147 261.985 125.874 262.911C126.602 263.836 127.858 264.299 129.643 264.299C130.668 264.299 131.791 264.282 133.015 264.249C134.238 264.183 135.444 264.117 136.634 264.051C137.857 263.985 138.899 263.919 139.758 263.853L139.907 268.464C139.08 268.596 138.039 268.745 136.783 268.91C135.527 269.076 134.221 269.208 132.866 269.307C131.544 269.439 130.287 269.505 129.097 269.505ZM124.734 254.531H134.006C134.006 252.283 133.643 250.713 132.915 249.82C132.221 248.928 131.081 248.481 129.494 248.481C127.94 248.481 126.75 248.944 125.924 249.87C125.131 250.795 124.734 252.349 124.734 254.531ZM154.903 269.505C154.077 269.505 153.069 269.472 151.879 269.406C150.689 269.34 149.465 269.241 148.209 269.109C146.986 268.976 145.895 268.861 144.937 268.762V233.903H151.581V244.862C152.341 244.564 153.333 244.267 154.556 243.969C155.779 243.672 156.92 243.523 157.977 243.523C160.291 243.523 162.126 244.002 163.481 244.961C164.87 245.886 165.861 247.275 166.457 249.126C167.052 250.977 167.349 253.308 167.349 256.117C167.349 259.423 166.969 262.068 166.209 264.051C165.481 266.001 164.209 267.406 162.391 268.266C160.572 269.092 158.077 269.505 154.903 269.505ZM154.953 263.952C156.573 263.952 157.779 263.671 158.573 263.109C159.366 262.514 159.895 261.638 160.159 260.481C160.457 259.324 160.605 257.902 160.605 256.217C160.605 254.498 160.473 253.126 160.209 252.101C159.944 251.043 159.498 250.283 158.87 249.82C158.275 249.324 157.432 249.076 156.341 249.076C155.515 249.076 154.655 249.192 153.763 249.423C152.87 249.655 152.143 249.87 151.581 250.068V263.753C152.077 263.787 152.655 263.836 153.317 263.902C153.978 263.935 154.523 263.952 154.953 263.952ZM180.884 269.505C179.793 269.505 178.62 269.439 177.364 269.307C176.141 269.208 174.984 269.076 173.893 268.91C172.835 268.745 171.926 268.58 171.166 268.414L171.364 263.506C172.223 263.605 173.182 263.72 174.24 263.853C175.331 263.985 176.388 264.101 177.413 264.2C178.471 264.266 179.331 264.299 179.992 264.299C180.983 264.299 181.793 264.216 182.421 264.051C183.082 263.886 183.578 263.621 183.909 263.258C184.239 262.861 184.405 262.299 184.405 261.572C184.405 261.01 184.256 260.58 183.958 260.283C183.694 259.985 183.165 259.737 182.372 259.539C181.611 259.307 180.487 259.076 179 258.845C177.149 258.58 175.612 258.2 174.389 257.704C173.199 257.208 172.323 256.481 171.761 255.522C171.199 254.531 170.918 253.192 170.918 251.506C170.918 249.457 171.364 247.853 172.256 246.696C173.149 245.539 174.339 244.729 175.827 244.267C177.314 243.771 178.934 243.523 180.686 243.523C181.843 243.523 183.033 243.589 184.256 243.721C185.479 243.82 186.636 243.953 187.727 244.118C188.818 244.283 189.727 244.448 190.454 244.614L190.256 249.622C189.429 249.49 188.471 249.374 187.38 249.275C186.289 249.142 185.198 249.043 184.107 248.977C183.049 248.911 182.157 248.878 181.43 248.878C180.669 248.878 179.992 248.961 179.397 249.126C178.802 249.258 178.339 249.49 178.008 249.82C177.711 250.151 177.562 250.647 177.562 251.308C177.562 251.77 177.694 252.151 177.959 252.448C178.223 252.746 178.719 253.01 179.446 253.241C180.207 253.44 181.297 253.638 182.719 253.837C184.768 254.134 186.405 254.547 187.628 255.076C188.851 255.605 189.727 256.365 190.256 257.357C190.818 258.349 191.099 259.688 191.099 261.373C191.099 264.382 190.206 266.497 188.421 267.72C186.669 268.91 184.157 269.505 180.884 269.505ZM195.443 268.96V244.068H202.038V268.96H195.443ZM195.443 240.101V234.449H202.087V240.101H195.443ZM216.275 269.555C214.457 269.555 212.986 269.29 211.862 268.762C210.738 268.233 209.929 267.324 209.433 266.034C208.97 264.712 208.738 262.877 208.738 260.53V249.572H205.813V244.068H208.738V237.473H215.333V244.068H221.68V249.572H215.333V258.795C215.333 260.084 215.383 261.092 215.482 261.82C215.614 262.547 215.879 263.059 216.275 263.357C216.672 263.654 217.284 263.803 218.11 263.803C218.341 263.803 218.689 263.787 219.151 263.753C219.614 263.72 220.077 263.687 220.54 263.654C221.002 263.621 221.383 263.588 221.68 263.555L221.878 268.861C221.085 268.993 220.126 269.142 219.003 269.307C217.912 269.472 217.003 269.555 216.275 269.555ZM235.434 269.505C232.69 269.505 230.508 269.043 228.889 268.117C227.302 267.191 226.161 265.786 225.467 263.902C224.773 262.018 224.426 259.654 224.426 256.812C224.426 253.737 224.856 251.225 225.715 249.275C226.608 247.324 227.897 245.886 229.583 244.961C231.269 244.002 233.351 243.523 235.83 243.523C239.5 243.523 242.26 244.448 244.111 246.3C245.995 248.151 246.937 251.076 246.937 255.076L246.64 258.745H231.07C231.103 260.597 231.483 261.985 232.211 262.911C232.938 263.836 234.194 264.299 235.979 264.299C237.004 264.299 238.128 264.282 239.351 264.249C240.574 264.183 241.781 264.117 242.971 264.051C244.194 263.985 245.235 263.919 246.095 263.853L246.243 268.464C245.417 268.596 244.376 268.745 243.119 268.91C241.863 269.076 240.558 269.208 239.202 269.307C237.88 269.439 236.624 269.505 235.434 269.505ZM231.07 254.531H240.343C240.343 252.283 239.979 250.713 239.252 249.82C238.558 248.928 237.417 248.481 235.83 248.481C234.277 248.481 233.087 248.944 232.26 249.87C231.467 250.795 231.07 252.349 231.07 254.531ZM259.989 268.96L268.617 235.093H280.566L289.145 268.96H282.302L280.418 262.117H268.567L266.782 268.96H259.989ZM269.658 256.613H279.426L275.608 240.647H273.525L269.658 256.613ZM296.399 268.96L290.499 244.068H297.589L301.754 263.357H303.192L307.457 244.068H314.151L308.25 268.96H296.399ZM324.109 269.505C321.531 269.505 319.58 268.861 318.258 267.572C316.969 266.249 316.324 264.266 316.324 261.621C316.324 259.77 316.655 258.332 317.316 257.307C317.977 256.25 318.952 255.489 320.241 255.027C321.564 254.531 323.167 254.233 325.051 254.134L331.1 253.589V252.101C331.1 250.911 330.803 250.085 330.208 249.622C329.613 249.126 328.737 248.878 327.58 248.878C326.654 248.878 325.58 248.911 324.357 248.977C323.167 249.043 321.977 249.126 320.787 249.225C319.63 249.324 318.622 249.423 317.762 249.523L317.564 244.862C318.423 244.663 319.448 244.465 320.638 244.267C321.861 244.035 323.134 243.853 324.456 243.721C325.778 243.589 327.001 243.523 328.125 243.523C330.241 243.523 332.01 243.787 333.431 244.316C334.852 244.845 335.927 245.721 336.654 246.944C337.381 248.134 337.745 249.754 337.745 251.804V263.158C337.811 263.621 338.059 263.985 338.489 264.249C338.918 264.481 339.414 264.646 339.976 264.745L339.827 269.307C339.034 269.34 338.257 269.357 337.497 269.357C336.737 269.357 336.092 269.307 335.563 269.208C334.803 269.109 334.142 268.91 333.58 268.613C333.051 268.315 332.621 268.001 332.291 267.671C331.762 267.902 331.051 268.167 330.158 268.464C329.266 268.762 328.291 269.009 327.233 269.208C326.208 269.406 325.167 269.505 324.109 269.505ZM325.696 264.596C326.324 264.596 326.985 264.53 327.679 264.398C328.373 264.266 329.018 264.117 329.613 263.952C330.241 263.753 330.737 263.572 331.1 263.406V257.704L326.043 258.15C324.952 258.25 324.159 258.58 323.663 259.142C323.2 259.671 322.969 260.431 322.969 261.423C322.969 262.415 323.183 263.192 323.613 263.753C324.076 264.315 324.77 264.596 325.696 264.596ZM343.568 268.96V244.068H350.163V268.96H343.568ZM343.568 240.101V234.449H350.212V240.101H343.568ZM355.872 268.96V233.903H362.467V268.96H355.872ZM374.614 269.505C372.036 269.505 370.085 268.861 368.763 267.572C367.474 266.249 366.829 264.266 366.829 261.621C366.829 259.77 367.16 258.332 367.821 257.307C368.482 256.25 369.457 255.489 370.746 255.027C372.069 254.531 373.672 254.233 375.556 254.134L381.605 253.589V252.101C381.605 250.911 381.308 250.085 380.713 249.622C380.118 249.126 379.242 248.878 378.085 248.878C377.159 248.878 376.085 248.911 374.862 248.977C373.672 249.043 372.482 249.126 371.292 249.225C370.135 249.324 369.127 249.423 368.267 249.523L368.069 244.862C368.928 244.663 369.953 244.465 371.143 244.267C372.366 244.035 373.639 243.853 374.961 243.721C376.283 243.589 377.506 243.523 378.63 243.523C380.746 243.523 382.514 243.787 383.936 244.316C385.357 244.845 386.432 245.721 387.159 246.944C387.886 248.134 388.25 249.754 388.25 251.804V263.158C388.316 263.621 388.564 263.985 388.994 264.249C389.423 264.481 389.919 264.646 390.481 264.745L390.332 269.307C389.539 269.34 388.762 269.357 388.002 269.357C387.242 269.357 386.597 269.307 386.068 269.208C385.308 269.109 384.647 268.91 384.085 268.613C383.556 268.315 383.126 268.001 382.795 267.671C382.267 267.902 381.556 268.167 380.663 268.464C379.771 268.762 378.796 269.009 377.738 269.208C376.713 269.406 375.672 269.505 374.614 269.505ZM376.201 264.596C376.829 264.596 377.49 264.53 378.184 264.398C378.878 264.266 379.523 264.117 380.118 263.952C380.746 263.753 381.242 263.572 381.605 263.406V257.704L376.548 258.15C375.457 258.25 374.664 258.58 374.168 259.142C373.705 259.671 373.473 260.431 373.473 261.423C373.473 262.415 373.688 263.192 374.118 263.753C374.581 264.315 375.275 264.596 376.201 264.596ZM403.99 269.505C403.163 269.505 402.155 269.472 400.965 269.406C399.775 269.34 398.552 269.241 397.296 269.109C396.073 268.976 394.982 268.861 394.023 268.762V233.903H400.668V244.862C401.428 244.564 402.42 244.267 403.643 243.969C404.866 243.672 406.006 243.523 407.064 243.523C409.378 243.523 411.213 244.002 412.568 244.961C413.956 245.886 414.948 247.275 415.543 249.126C416.138 250.977 416.436 253.308 416.436 256.117C416.436 259.423 416.056 262.068 415.295 264.051C414.568 266.001 413.295 267.406 411.477 268.266C409.659 269.092 407.163 269.505 403.99 269.505ZM404.039 263.952C405.659 263.952 406.866 263.671 407.659 263.109C408.453 262.514 408.981 261.638 409.246 260.481C409.543 259.324 409.692 257.902 409.692 256.217C409.692 254.498 409.56 253.126 409.295 252.101C409.031 251.043 408.585 250.283 407.957 249.82C407.362 249.324 406.519 249.076 405.428 249.076C404.601 249.076 403.742 249.192 402.849 249.423C401.957 249.655 401.23 249.87 400.668 250.068V263.753C401.164 263.787 401.742 263.836 402.403 263.902C403.064 263.935 403.61 263.952 404.039 263.952ZM421.194 268.96V233.903H427.789V268.96H421.194ZM443.506 269.505C440.763 269.505 438.581 269.043 436.961 268.117C435.374 267.191 434.234 265.786 433.54 263.902C432.846 262.018 432.498 259.654 432.498 256.812C432.498 253.737 432.928 251.225 433.788 249.275C434.68 247.324 435.969 245.886 437.655 244.961C439.341 244.002 441.424 243.523 443.903 243.523C447.572 243.523 450.333 244.448 452.184 246.3C454.068 248.151 455.01 251.076 455.01 255.076L454.713 258.745H439.143C439.176 260.597 439.556 261.985 440.283 262.911C441.011 263.836 442.267 264.299 444.052 264.299C445.077 264.299 446.2 264.282 447.424 264.249C448.647 264.183 449.853 264.117 451.043 264.051C452.266 263.985 453.308 263.919 454.167 263.853L454.316 268.464C453.489 268.596 452.448 268.745 451.192 268.91C449.936 269.076 448.63 269.208 447.275 269.307C445.953 269.439 444.696 269.505 443.506 269.505ZM439.143 254.531H448.415C448.415 252.283 448.052 250.713 447.324 249.82C446.63 248.928 445.49 248.481 443.903 248.481C442.349 248.481 441.159 248.944 440.333 249.87C439.54 250.795 439.143 252.349 439.143 254.531Z" fill="#344156"/>
<g clip-path="url(#clip0_2894_7982)">
<path d="M271.956 71.4727H253.92C252.076 71.4727 250.581 72.9682 250.581 74.8125V92.8477C250.581 94.6919 252.076 96.1875 253.92 96.1875H271.956C273.8 96.1875 275.295 94.6919 275.295 92.8477V74.8125C275.295 72.9682 273.8 71.4727 271.956 71.4727ZM268.616 89.5078H257.26V78.1523H268.616V89.5078Z" fill="#344156"/>
<path d="M237.555 71.4727H219.52C217.676 71.4727 216.18 72.9682 216.18 74.8125V92.8477C216.18 94.6919 217.676 96.1875 219.52 96.1875H237.555C239.399 96.1875 240.895 94.6919 240.895 92.8477V74.8125C240.895 72.9682 239.4 71.4727 237.555 71.4727ZM234.215 89.5078H222.86V78.1523H234.215V89.5078Z" fill="#344156"/>
<path d="M203.155 71.4727H185.12C183.275 71.4727 181.78 72.9682 181.78 74.8125V92.8477C181.78 94.6919 183.275 96.1875 185.12 96.1875H203.155C204.999 96.1875 206.495 94.6919 206.495 92.8477V74.8125C206.495 72.9682 204.999 71.4727 203.155 71.4727ZM199.815 89.5078H188.459V78.1523H199.815V89.5078Z" fill="#344156"/>
<path d="M219.52 116.227H185.12C183.275 116.227 181.78 117.722 181.78 119.566V137.602C181.78 139.446 183.275 140.941 185.12 140.941H219.52C221.364 140.941 222.86 139.446 222.86 137.602V119.566C222.86 117.722 221.365 116.227 219.52 116.227ZM216.18 134.262H188.459V122.906H216.18V134.262Z" fill="#344156"/>
<path d="M271.323 116.227H234.424C232.58 116.227 231.084 117.722 231.084 119.566C231.084 121.411 232.58 122.906 234.424 122.906H271.323C273.168 122.906 274.663 121.411 274.663 119.566C274.663 117.722 273.168 116.227 271.323 116.227Z" fill="#344156"/>
<path d="M273.685 130.565C273.063 129.943 272.202 129.586 271.323 129.586C270.445 129.586 269.583 129.943 268.962 130.565C268.341 131.186 267.983 132.047 267.983 132.926C267.983 133.804 268.341 134.666 268.962 135.287C269.583 135.908 270.445 136.266 271.323 136.266C272.202 136.266 273.063 135.908 273.685 135.287C274.305 134.666 274.663 133.804 274.663 132.926C274.663 132.047 274.306 131.186 273.685 130.565Z" fill="#344156"/>
<path d="M258.002 129.586H234.424C232.58 129.586 231.084 131.082 231.084 132.926C231.084 134.77 232.58 136.266 234.424 136.266H258.002C259.846 136.266 261.342 134.77 261.342 132.926C261.342 131.082 259.846 129.586 258.002 129.586Z" fill="#344156"/>
<path d="M196.715 12.9307C191.19 12.9307 186.695 17.4254 186.695 22.9502C186.695 28.475 191.19 32.9697 196.715 32.9697C202.24 32.9697 206.734 28.475 206.734 22.9502C206.734 17.4254 202.24 12.9307 196.715 12.9307ZM196.715 26.29C194.873 26.29 193.375 24.7918 193.375 22.9502C193.375 21.1086 194.873 19.6104 196.715 19.6104C198.556 19.6104 200.055 21.1086 200.055 22.9502C200.055 24.7918 198.556 26.29 196.715 26.29Z" fill="#344156"/>
<path d="M310.66 146.285H308.322V61.4571C308.322 52.2492 300.831 44.7579 291.623 44.7579H288.617V3.33984C288.617 1.49558 287.122 0 285.277 0H171.723C169.878 0 168.383 1.49558 168.383 3.33984V44.7579H165.377C156.169 44.7579 148.678 52.2492 148.678 61.4571V86.2792C148.678 88.1234 150.173 89.619 152.018 89.619C153.862 89.619 155.357 88.1234 155.357 86.2792V61.4571C155.357 55.9324 159.852 51.4376 165.377 51.4376H168.383V146.285H155.357V112.553C155.357 110.708 153.862 109.213 152.018 109.213C150.173 109.213 148.678 110.708 148.678 112.553V146.285H146.34C144.496 146.285 143 147.781 143 149.625V154.301C143 163.509 150.491 171 159.699 171H297.301C306.509 171 314 163.509 314 154.301V149.625C314 147.781 312.504 146.285 310.66 146.285ZM288.617 59.3023C288.617 59.3013 288.617 59.2999 288.617 59.2989V51.4376H291.623C297.148 51.4376 301.643 55.9324 301.643 61.4571V146.285H288.617V59.3023ZM175.062 6.67969H281.938V51.2372L253.657 22.9571C253.031 22.3309 252.181 21.9788 251.296 21.9788C250.41 21.9788 249.561 22.3309 248.934 22.9571L235.056 36.8355L229.303 31.0826C227.999 29.7787 225.885 29.7787 224.58 31.0826L197.549 58.1133H175.062V6.67969ZM239.779 41.559L251.296 30.0422L279.367 58.1133H256.334L239.779 41.559ZM246.887 58.1133H206.996L226.941 38.1677L246.887 58.1133ZM175.062 64.793H281.938V102.867H175.062V64.793ZM175.062 109.547H281.938V146.285H175.062V109.547ZM307.32 154.301C307.32 159.826 302.826 164.32 297.301 164.32H159.699C154.174 164.32 149.68 159.826 149.68 154.301V152.965H152.468C152.494 152.965 307.32 152.965 307.32 152.965V154.301Z" fill="#344156"/>
<path d="M234.512 155.303H222.461C220.617 155.303 219.121 156.798 219.121 158.643C219.121 160.487 220.617 161.982 222.461 161.982H234.512C236.356 161.982 237.852 160.487 237.852 158.643C237.852 156.798 236.356 155.303 234.512 155.303Z" fill="#344156"/>
<path d="M154.379 98.168C153.758 97.5465 152.896 97.1895 152.018 97.1895C151.139 97.1895 150.278 97.5465 149.656 98.168C149.035 98.7896 148.678 99.6509 148.678 100.529C148.678 101.408 149.035 102.269 149.656 102.89C150.278 103.512 151.139 103.869 152.018 103.869C152.896 103.869 153.758 103.512 154.379 102.89C155 102.269 155.357 101.408 155.357 100.529C155.357 99.6509 155 98.7892 154.379 98.168Z" fill="#344156"/>
</g>
<defs>
<clipPath id="clip0_2894_7982">
<rect width="171" height="171" fill="white" transform="translate(143)"/>
</clipPath>
</defs>
</svg>
