<svg width="16" height="16" viewBox="0 0 16 16" fill="none" xmlns="http://www.w3.org/2000/svg">
<path fill-rule="evenodd" clip-rule="evenodd" d="M3.86233 1.11147C1.10864 1.99803 -0.119602 5.00426 0.803615 7.87214C1.2721 9.22258 2.03401 10.4363 3.03503 11.4322C4.40826 12.7659 5.9169 13.9396 7.53866 14.9368L7.72283 15.0471C7.89921 15.1527 8.11985 15.1508 8.29443 15.0423L8.46636 14.9354C10.0859 13.9396 11.5945 12.7659 12.9631 11.4368C13.9688 10.4363 14.7307 9.22258 15.1953 7.88387C16.1218 5.00601 14.8885 1.99835 12.134 1.11151L11.9347 1.05217C10.6718 0.704815 9.32974 0.875976 8.19839 1.51651L7.99729 1.63572L7.79974 1.51718C6.60645 0.84008 5.1803 0.687524 3.86233 1.11147ZM7.53111 2.64063L7.67866 2.74646C7.87316 2.88576 8.1356 2.88299 8.32712 2.73961C9.32463 1.99285 10.6156 1.77554 11.7982 2.15494C13.9324 2.84205 14.9036 5.21064 14.1549 7.53642C13.7488 8.70623 13.0766 9.77711 12.1939 10.6553L11.7978 11.0315C10.7309 12.023 9.57704 12.9206 8.35197 13.7116L8.00107 13.9323L8.10815 13.9998C6.56049 13.0481 5.11544 11.9238 3.80449 10.6507C2.92641 9.77711 2.2542 8.70623 1.84418 7.52469C1.09868 5.20843 2.06572 2.84151 4.19877 2.15476C5.32511 1.79246 6.55305 1.97209 7.53111 2.64063ZM10.9026 3.86276C10.614 3.77065 10.3053 3.92973 10.2132 4.21807C10.121 4.50641 10.2802 4.81482 10.5688 4.90693C11.1359 5.08796 11.5403 5.59848 11.591 6.20067C11.6164 6.5023 11.8816 6.72626 12.1835 6.70091C12.4854 6.67555 12.7096 6.41048 12.6842 6.10885C12.5965 5.06639 11.8937 4.17908 10.9026 3.86276Z" fill="white"/>
</svg>
