<svg width="16" height="16" viewBox="0 0 16 16" fill="none" xmlns="http://www.w3.org/2000/svg">
<path fill-rule="evenodd" clip-rule="evenodd" d="M7.481 0.5C9.3155 0.5 10.808 1.9925 10.808 3.827V4.526C10.808 4.8365 10.556 5.0885 10.2455 5.0885C9.935 5.0885 9.683 4.8365 9.683 4.526V3.827C9.683 2.612 8.69525 1.625 7.481 1.625H3.82475C2.612 1.625 1.625 2.612 1.625 3.827V12.1737C1.625 13.388 2.612 14.375 3.82475 14.375H7.48925C8.69825 14.375 9.683 13.391 9.683 12.182V11.4748C9.683 11.1643 9.935 10.9123 10.2455 10.9123C10.556 10.9123 10.808 11.1643 10.808 11.4748V12.182C10.808 14.012 9.3185 15.5 7.48925 15.5H3.82475C1.99175 15.5 0.5 14.0082 0.5 12.1737V3.827C0.5 1.9925 1.99175 0.5 3.82475 0.5H7.481ZM13.5411 5.4155L15.7371 7.60175C15.7567 7.62119 15.7742 7.6414 15.7903 7.66279L15.7371 7.60175C15.7636 7.62795 15.7873 7.65657 15.8078 7.6871C15.8168 7.70093 15.8255 7.71524 15.8336 7.72994C15.8401 7.74142 15.8461 7.75341 15.8517 7.7656C15.8565 7.77636 15.861 7.78714 15.8652 7.79808C15.8709 7.81233 15.8758 7.82698 15.8802 7.84183C15.8834 7.85353 15.8865 7.86519 15.8891 7.877C15.8924 7.89133 15.8951 7.90574 15.8972 7.92026C15.8983 7.9297 15.8995 7.9396 15.9004 7.94957C15.9021 7.96667 15.9028 7.9833 15.9028 8L15.899 8.0465L15.8975 8.07629C15.8973 8.07757 15.8971 8.07884 15.8969 8.08011L15.9028 8C15.9028 8.04163 15.8982 8.08286 15.8893 8.12294C15.8865 8.13481 15.8834 8.14647 15.8801 8.15799C15.8758 8.17302 15.8709 8.18767 15.8653 8.20209C15.861 8.21286 15.8565 8.22364 15.8516 8.23423C15.8461 8.24659 15.8401 8.25858 15.8337 8.27034C15.8255 8.28476 15.8168 8.29907 15.8075 8.31293C15.8022 8.32115 15.7965 8.32927 15.7905 8.33724C15.7726 8.36073 15.7531 8.38284 15.7321 8.4033L13.5411 10.5852C13.4316 10.6947 13.2876 10.7495 13.1443 10.7495C13.0003 10.7495 12.8556 10.6947 12.7461 10.5837C12.5271 10.3632 12.5278 10.0078 12.7476 9.78875L13.9775 8.5625H6.30935C5.99885 8.5625 5.74685 8.3105 5.74685 8C5.74685 7.6895 5.99885 7.4375 6.30935 7.4375H13.979L12.7476 6.212C12.5278 5.993 12.5263 5.6375 12.7461 5.417C12.9651 5.1965 13.3206 5.1965 13.5411 5.4155Z" fill="white"/>
</svg>
